<svg width="15" height="15" viewBox="0 0 15 15" fill="none" xmlns="http://www.w3.org/2000/svg">
<g clip-path="url(#clip0_57_258)">
<path d="M3.95782 11.4496C4.31055 11.1926 4.76719 11.127 5.17735 11.2746C5.90196 11.5371 6.71407 11.6875 7.57813 11.6875C10.9879 11.6875 13.2656 9.48633 13.2656 7.3125C13.2656 5.13867 10.9879 2.9375 7.57813 2.9375C4.16837 2.9375 1.89063 5.13867 1.89063 7.3125C1.89063 8.1875 2.22969 9.02969 2.8668 9.75156C3.10196 10.0168 3.2168 10.3668 3.18946 10.7223C3.15118 11.2172 3.0336 11.6711 2.88047 12.073C3.34532 11.857 3.73086 11.6164 3.95782 11.4523V11.4496ZM1.15782 12.5598C1.20704 12.4859 1.25352 12.4121 1.29727 12.3383C1.57071 11.8844 1.83047 11.2883 1.88243 10.6184C1.06211 9.68594 0.57813 8.5457 0.57813 7.3125C0.57813 4.1707 3.71172 1.625 7.57813 1.625C11.4445 1.625 14.5781 4.1707 14.5781 7.3125C14.5781 10.4543 11.4445 13 7.57813 13C6.56368 13 5.60118 12.825 4.73165 12.5105C4.40626 12.7484 3.87579 13.0738 3.24688 13.3473C2.83399 13.5277 2.36368 13.6918 1.87696 13.7875C1.85508 13.793 1.83321 13.7957 1.81133 13.8012C1.69102 13.823 1.57344 13.8422 1.4504 13.8531C1.44493 13.8531 1.43672 13.8559 1.43126 13.8559C1.2918 13.8695 1.15235 13.8777 1.0129 13.8777C0.835161 13.8777 0.676568 13.7711 0.608208 13.607C0.539849 13.443 0.57813 13.257 0.701177 13.1312C0.813286 13.0164 0.914458 12.8934 1.01016 12.7621C1.05665 12.6992 1.1004 12.6363 1.14141 12.5734C1.14415 12.568 1.14688 12.5652 1.14961 12.5598H1.15782Z" fill="currentColor"/>
</g>
<defs>
<clipPath id="clip0_57_258">
<path d="M0.578125 0.75H14.5781V14.75H0.578125V0.75Z" fill="currentColor"/>
</clipPath>
</defs>
</svg>
