<svg width="14" height="13" viewBox="0 0 14 13" fill="none" xmlns="http://www.w3.org/2000/svg">
<path d="M1.30156 7.96406L6.24258 12.5769C6.44766 12.7684 6.71836 12.875 7 12.875C7.28164 12.875 7.55234 12.7684 7.75742 12.5769L12.6984 7.96406C13.5297 7.19023 14 6.10468 14 4.96992V4.81132C14 2.89999 12.6191 1.27031 10.7352 0.955853C9.48828 0.748041 8.21953 1.15546 7.32812 2.04687L7 2.37499L6.67188 2.04687C5.78047 1.15546 4.51172 0.748041 3.26484 0.955853C1.38086 1.27031 0 2.89999 0 4.81132V4.96992C0 6.10468 0.470312 7.19023 1.30156 7.96406Z" fill="currentColor"/>
</svg>
