<svg width="14" height="13" viewBox="0 0 14 13" fill="none" xmlns="http://www.w3.org/2000/svg">
<path d="M6.17422 12.5523L6.10586 12.4895L1.31523 8.04063C0.475781 7.26133 0 6.16758 0 5.02188V4.93164C0 3.00664 1.36719 1.35508 3.25937 0.994142C4.33672 0.786329 5.43867 1.03516 6.31641 1.65313C6.5625 1.82813 6.79219 2.03047 7 2.26289C7.11484 2.13164 7.23789 2.01133 7.36914 1.89922C7.47031 1.81172 7.57422 1.72969 7.68359 1.65313C8.56133 1.03516 9.66328 0.786329 10.7406 0.991407C12.6328 1.35234 14 3.00664 14 4.93164V5.02188C14 6.16758 13.5242 7.26133 12.6848 8.04063L7.89414 12.4895L7.82578 12.5523C7.60156 12.7602 7.30625 12.8777 7 12.8777C6.69375 12.8777 6.39844 12.7629 6.17422 12.5523ZM6.53789 3.71484C6.52695 3.70664 6.51875 3.6957 6.51055 3.68477L6.02383 3.13789L6.02109 3.13516C5.38945 2.42695 4.43516 2.1043 3.50547 2.28203C2.23125 2.52539 1.3125 3.63555 1.3125 4.93164V5.02188C1.3125 5.80117 1.63789 6.54766 2.20938 7.07813L7 11.527L11.7906 7.07813C12.3621 6.54766 12.6875 5.80117 12.6875 5.02188V4.93164C12.6875 3.63828 11.7688 2.52539 10.4973 2.28203C9.56758 2.1043 8.61055 2.42969 7.98164 3.13516C7.98164 3.13516 7.98164 3.13516 7.97891 3.13789C7.97617 3.14063 7.97891 3.13789 7.97617 3.14063L7.48945 3.6875C7.48125 3.69844 7.47031 3.70664 7.46211 3.71758C7.33906 3.84063 7.17227 3.90899 7 3.90899C6.82773 3.90899 6.66094 3.84063 6.53789 3.71758V3.71484Z" fill="#6B7280"/>
</svg>
