<svg width="24" height="22" viewBox="0 0 24 22" fill="none" xmlns="http://www.w3.org/2000/svg">
<path d="M3.57143 21.4286V19.0476H20.2381V21.4286H3.57143ZM3.57143 17.2619L2.05357 7.70833C2.01389 7.70833 1.96925 7.71329 1.91964 7.72321C1.87004 7.73314 1.8254 7.7381 1.78571 7.7381C1.28968 7.7381 0.868056 7.56448 0.520833 7.21726C0.173611 6.87004 0 6.44841 0 5.95238C0 5.45635 0.173611 5.03472 0.520833 4.6875C0.868056 4.34028 1.28968 4.16667 1.78571 4.16667C2.28175 4.16667 2.70337 4.34028 3.0506 4.6875C3.39782 5.03472 3.57143 5.45635 3.57143 5.95238C3.57143 6.09127 3.55655 6.22024 3.52679 6.33929C3.49702 6.45833 3.4623 6.56746 3.42262 6.66667L7.14286 8.33333L10.8631 3.24405C10.6448 3.08532 10.4663 2.87698 10.3274 2.61905C10.1885 2.36111 10.119 2.08333 10.119 1.78571C10.119 1.28968 10.2927 0.868056 10.6399 0.520833C10.9871 0.173611 11.4087 0 11.9048 0C12.4008 0 12.8224 0.173611 13.1696 0.520833C13.5169 0.868056 13.6905 1.28968 13.6905 1.78571C13.6905 2.08333 13.621 2.36111 13.4821 2.61905C13.3433 2.87698 13.1647 3.08532 12.9464 3.24405L16.6667 8.33333L20.3869 6.66667C20.3472 6.56746 20.3125 6.45833 20.2827 6.33929C20.253 6.22024 20.2381 6.09127 20.2381 5.95238C20.2381 5.45635 20.4117 5.03472 20.7589 4.6875C21.1061 4.34028 21.5278 4.16667 22.0238 4.16667C22.5198 4.16667 22.9415 4.34028 23.2887 4.6875C23.6359 5.03472 23.8095 5.45635 23.8095 5.95238C23.8095 6.44841 23.6359 6.87004 23.2887 7.21726C22.9415 7.56448 22.5198 7.7381 22.0238 7.7381C21.9841 7.7381 21.9395 7.73314 21.8899 7.72321C21.8403 7.71329 21.7956 7.70833 21.756 7.70833L20.2381 17.2619H3.57143ZM5.59524 14.881H18.2143L18.9881 9.91071L15.8631 11.2798L11.9048 5.83333L7.94643 11.2798L4.82143 9.91071L5.59524 14.881Z" fill="white"/>
</svg>
