<svg width="18" height="19" viewBox="0 0 18 19" fill="none" xmlns="http://www.w3.org/2000/svg">
<g clip-path="url(#clip0_295_796)">
<path d="M17.5114 0.696887C17.8665 0.942981 18.0529 1.36837 17.9861 1.79376L15.7361 16.4188C15.6833 16.7598 15.4759 17.0586 15.1736 17.2274C14.8712 17.3961 14.5091 17.4172 14.1892 17.2836L9.9845 15.5363L7.57629 18.1414C7.2634 18.4824 6.77122 18.5949 6.33879 18.4262C5.90637 18.2574 5.62512 17.8391 5.62512 17.375V14.4359C5.62512 14.2953 5.67786 14.1617 5.77278 14.0598L11.665 7.6297C11.8689 7.40822 11.8618 7.0672 11.6509 6.85626C11.44 6.64533 11.0989 6.63126 10.8775 6.83165L3.72668 13.1844L0.622388 11.6305C0.249731 11.4442 0.0106689 11.0715 0.000122031 10.6567C-0.0104248 10.2418 0.207544 9.85509 0.566138 9.64767L16.3161 0.647669C16.6923 0.433215 17.1564 0.454309 17.5114 0.696887Z" fill="currentColor"/>
</g>
<defs>
<clipPath id="clip0_295_796">
<path d="M0 0.5H18V18.5H0V0.5Z" fill="currentColor"/>
</clipPath>
</defs>
</svg>
