<svg width="25" height="25" viewBox="0 0 25 25" fill="none" xmlns="http://www.w3.org/2000/svg">
<path d="M7.5 11.25C7.85417 11.25 8.15104 11.1302 8.39062 10.8906C8.63021 10.651 8.75 10.3542 8.75 10C8.75 9.64583 8.63021 9.34896 8.39062 9.10938C8.15104 8.86979 7.85417 8.75 7.5 8.75C7.14583 8.75 6.84896 8.86979 6.60938 9.10938C6.36979 9.34896 6.25 9.64583 6.25 10C6.25 10.3542 6.36979 10.651 6.60938 10.8906C6.84896 11.1302 7.14583 11.25 7.5 11.25ZM12.5 11.25C12.8542 11.25 13.151 11.1302 13.3906 10.8906C13.6302 10.651 13.75 10.3542 13.75 10C13.75 9.64583 13.6302 9.34896 13.3906 9.10938C13.151 8.86979 12.8542 8.75 12.5 8.75C12.1458 8.75 11.849 8.86979 11.6094 9.10938C11.3698 9.34896 11.25 9.64583 11.25 10C11.25 10.3542 11.3698 10.651 11.6094 10.8906C11.849 11.1302 12.1458 11.25 12.5 11.25ZM17.5 11.25C17.8542 11.25 18.151 11.1302 18.3906 10.8906C18.6302 10.651 18.75 10.3542 18.75 10C18.75 9.64583 18.6302 9.34896 18.3906 9.10938C18.151 8.86979 17.8542 8.75 17.5 8.75C17.1458 8.75 16.849 8.86979 16.6094 9.10938C16.3698 9.34896 16.25 9.64583 16.25 10C16.25 10.3542 16.3698 10.651 16.6094 10.8906C16.849 11.1302 17.1458 11.25 17.5 11.25ZM0 25V2.5C0 1.8125 0.244792 1.22396 0.734375 0.734375C1.22396 0.244792 1.8125 0 2.5 0H22.5C23.1875 0 23.776 0.244792 24.2656 0.734375C24.7552 1.22396 25 1.8125 25 2.5V17.5C25 18.1875 24.7552 18.776 24.2656 19.2656C23.776 19.7552 23.1875 20 22.5 20H5L0 25ZM3.9375 17.5H22.5V2.5H2.5V18.9062L3.9375 17.5Z" fill="white"/>
</svg>
