<svg width="30" height="30" viewBox="0 0 30 30" fill="none" xmlns="http://www.w3.org/2000/svg">
<mask id="mask0_546_372" style="mask-type:alpha" maskUnits="userSpaceOnUse" x="0" y="0" width="30" height="30">
<rect width="30" height="30" fill="#D9D9D9"/>
</mask>
<g mask="url(#mask0_546_372)">
<path d="M26.2812 13.8125V23.75C26.2812 24.4375 26.0364 25.026 25.5469 25.5156C25.0573 26.0052 24.4687 26.25 23.7812 26.25H6.28124C5.59374 26.25 5.0052 26.0052 4.51561 25.5156C4.02603 25.026 3.78124 24.4375 3.78124 23.75V13.8125C3.30207 13.375 2.93228 12.8125 2.67186 12.125C2.41145 11.4375 2.40624 10.6875 2.65624 9.875L3.96874 5.625C4.1354 5.08333 4.43228 4.63542 4.85936 4.28125C5.28645 3.92708 5.78124 3.75 6.34374 3.75H23.7187C24.2812 3.75 24.7708 3.92187 25.1875 4.26562C25.6042 4.60938 25.9062 5.0625 26.0937 5.625L27.4062 9.875C27.6562 10.6875 27.651 11.4271 27.3906 12.0938C27.1302 12.7604 26.7604 13.3333 26.2812 13.8125ZM17.7812 12.5C18.3437 12.5 18.7708 12.3073 19.0625 11.9219C19.3542 11.5365 19.4687 11.1042 19.4062 10.625L18.7187 6.25H16.2812V10.875C16.2812 11.3125 16.4271 11.6927 16.7187 12.0156C17.0104 12.3385 17.3646 12.5 17.7812 12.5ZM12.1562 12.5C12.6354 12.5 13.026 12.3385 13.3281 12.0156C13.6302 11.6927 13.7812 11.3125 13.7812 10.875V6.25H11.3437L10.6562 10.625C10.5729 11.125 10.6823 11.5625 10.9844 11.9375C11.2864 12.3125 11.6771 12.5 12.1562 12.5ZM6.59374 12.5C6.96874 12.5 7.29686 12.3646 7.57811 12.0938C7.85936 11.8229 8.03124 11.4792 8.09374 11.0625L8.78124 6.25H6.34374L5.09374 10.4375C4.96874 10.8542 5.03645 11.3021 5.29686 11.7812C5.55728 12.2604 5.98957 12.5 6.59374 12.5ZM23.4687 12.5C24.0729 12.5 24.5104 12.2604 24.7812 11.7812C25.0521 11.3021 25.1146 10.8542 24.9687 10.4375L23.6562 6.25H21.2812L21.9687 11.0625C22.0312 11.4792 22.2031 11.8229 22.4844 12.0938C22.7656 12.3646 23.0937 12.5 23.4687 12.5ZM6.28124 23.75H23.7812V14.9375C23.6771 14.9792 23.6094 15 23.5781 15H23.4687C22.9062 15 22.4114 14.9063 21.9844 14.7188C21.5573 14.5313 21.1354 14.2292 20.7187 13.8125C20.3437 14.1875 19.9167 14.4792 19.4375 14.6875C18.9583 14.8958 18.4479 15 17.9062 15C17.3437 15 16.8177 14.8958 16.3281 14.6875C15.8385 14.4792 15.4062 14.1875 15.0312 13.8125C14.6771 14.1875 14.2656 14.4792 13.7969 14.6875C13.3281 14.8958 12.8229 15 12.2812 15C11.6771 15 11.1302 14.8958 10.6406 14.6875C10.151 14.4792 9.71874 14.1875 9.34374 13.8125C8.90624 14.25 8.47395 14.5573 8.04686 14.7344C7.61978 14.9115 7.1354 15 6.59374 15H6.45311C6.40103 15 6.34374 14.9792 6.28124 14.9375V23.75Z" fill="#1C1B1F"/>
</g>
</svg>
