<svg width="50" height="50" viewBox="0 0 50 50" fill="none" xmlns="http://www.w3.org/2000/svg">
<path d="M9.39016 15.3585C9.0021 15.7465 8.78852 16.2625 8.78852 16.8112L8.78853 20.3639C8.78853 20.7299 8.93095 21.074 9.18995 21.333C9.4258 21.5689 9.7395 21.7108 10.0734 21.7319C10.8054 21.7781 11.4955 22.0904 12.0163 22.6111C12.5872 23.182 12.9019 23.9412 12.9019 24.7487C12.9019 26.3401 11.6594 27.6653 10.0737 27.7655C9.35316 27.8107 8.78853 28.4117 8.78853 29.1336L8.78852 32.6863C8.78889 33.2351 9.00235 33.751 9.39029 34.1389C9.77835 34.527 10.2941 34.7405 10.843 34.7408L38.6547 34.741C39.7872 34.7408 40.7086 33.8194 40.7091 32.6866L40.7091 29.1337C40.7091 28.7677 40.5668 28.4232 40.3078 28.1642C40.0717 27.9281 39.758 27.7864 39.4241 27.7654C38.6918 27.7191 38.0018 27.407 37.481 26.8862C36.91 26.3152 36.5957 25.5562 36.5958 24.7485C36.5958 23.1569 37.8381 21.832 39.424 21.732C40.1449 21.6867 40.7094 21.0853 40.7088 20.364L40.7089 16.8114C40.7091 16.2624 40.4952 15.7466 40.1072 15.3586C39.7191 14.9705 39.2032 14.7568 38.6544 14.7569L18.174 14.7568H18.1737C18.1737 14.7568 18.1737 14.7568 18.1732 14.7568L10.8432 14.7568C10.2944 14.7567 9.77835 14.9703 9.39016 15.3585ZM17.0836 16.9379L17.0836 17.3015C17.0836 17.9041 17.5717 18.392 18.1741 18.392C18.7764 18.3919 19.2645 17.9037 19.2647 17.3012L19.2644 16.9379L38.5277 16.9378V19.6594C36.1684 20.1633 34.4144 22.268 34.4145 24.7485C34.4142 26.1386 34.9556 27.4455 35.9385 28.4284C36.6527 29.1426 37.553 29.6291 38.528 29.8376L38.528 32.5599L19.2644 32.5598L19.2643 32.1961C19.2643 31.8949 19.1423 31.6225 18.9449 31.4251C18.7475 31.2277 18.4748 31.1057 18.1736 31.1057C17.5712 31.1057 17.0831 31.5939 17.0832 32.1964L17.0831 32.5598L10.9694 32.5598L10.9694 29.8382C13.3288 29.3337 15.0829 27.2292 15.0827 24.749C15.0829 23.359 14.5414 22.0522 13.5583 21.0692C12.8442 20.3551 11.9442 19.8687 10.9694 19.66L10.9694 16.9382L17.0836 16.9379Z" fill="black"/>
<path d="M17.0834 29.0366C17.0831 29.6388 17.5718 30.1274 18.1739 30.1272C18.7763 30.1272 19.2645 29.639 19.2645 29.0366L19.2646 26.3285C19.2646 26.0276 19.1424 25.7547 18.9452 25.5575C18.748 25.3602 18.4752 25.2379 18.1742 25.2381C17.5718 25.2381 17.0836 25.7262 17.0836 26.3286L17.0834 29.0366Z" fill="black"/>
<path d="M17.0835 23.1691C17.0832 23.771 17.5719 24.2596 18.1739 24.2595C18.7764 24.2596 19.2646 23.7714 19.2645 23.1689L19.2646 20.4611C19.2646 20.1599 19.1424 19.887 18.9453 19.6899C18.7479 19.4925 18.4753 19.3704 18.1743 19.3705C17.5718 19.3704 17.0836 19.8585 17.0837 20.4611L17.0835 23.1691Z" fill="black"/>
</svg>
