<svg preserveAspectRatio="none" width="100%" height="100%" overflow="visible" style="display: block;" viewBox="0 0 11 12" fill="none" xmlns="http://www.w3.org/2000/svg">
<g id="Frame">
<g clip-path="url(#clip0_1181_32)">
<path id="Vector" d="M3 0C3.41484 0 3.75 0.335156 3.75 0.75V1.5H6.75V0.75C6.75 0.335156 7.08516 0 7.5 0C7.91484 0 8.25 0.335156 8.25 0.75V1.5H9.375C9.99609 1.5 10.5 2.00391 10.5 2.625V3.75H0V2.625C0 2.00391 0.503906 1.5 1.125 1.5H2.25V0.75C2.25 0.335156 2.58516 0 3 0ZM0 4.5H10.5V10.875C10.5 11.4961 9.99609 12 9.375 12H1.125C0.503906 12 0 11.4961 0 10.875V4.5ZM1.5 6.375V7.125C1.5 7.33125 1.66875 7.5 1.875 7.5H2.625C2.83125 7.5 3 7.33125 3 7.125V6.375C3 6.16875 2.83125 6 2.625 6H1.875C1.66875 6 1.5 6.16875 1.5 6.375ZM4.5 6.375V7.125C4.5 7.33125 4.66875 7.5 4.875 7.5H5.625C5.83125 7.5 6 7.33125 6 7.125V6.375C6 6.16875 5.83125 6 5.625 6H4.875C4.66875 6 4.5 6.16875 4.5 6.375ZM7.875 6C7.66875 6 7.5 6.16875 7.5 6.375V7.125C7.5 7.33125 7.66875 7.5 7.875 7.5H8.625C8.83125 7.5 9 7.33125 9 7.125V6.375C9 6.16875 8.83125 6 8.625 6H7.875ZM1.5 9.375V10.125C1.5 10.3313 1.66875 10.5 1.875 10.5H2.625C2.83125 10.5 3 10.3313 3 10.125V9.375C3 9.16875 2.83125 9 2.625 9H1.875C1.66875 9 1.5 9.16875 1.5 9.375ZM4.875 9C4.66875 9 4.5 9.16875 4.5 9.375V10.125C4.5 10.3313 4.66875 10.5 4.875 10.5H5.625C5.83125 10.5 6 10.3313 6 10.125V9.375C6 9.16875 5.83125 9 5.625 9H4.875ZM7.5 9.375V10.125C7.5 10.3313 7.66875 10.5 7.875 10.5H8.625C8.83125 10.5 9 10.3313 9 10.125V9.375C9 9.16875 8.83125 9 8.625 9H7.875C7.66875 9 7.5 9.16875 7.5 9.375Z" fill="var(--fill-0, #6B7280)"/>
</g>
</g>
<defs>
<clipPath id="clip0_1181_32">
<path d="M0 0H10.5V12H0V0Z" fill="white"/>
</clipPath>
</defs>
</svg>
