<svg preserveAspectRatio="none" width="100%" height="100%" overflow="visible" style="display: block;" viewBox="0 0 115 110" fill="none" xmlns="http://www.w3.org/2000/svg">
<g id="QRcode 1">
<path id="Vector" d="M11.2017 88.1384V77.5081H33.4816V98.7687H11.2017V88.1384ZM30.2988 88.1384V80.5453H14.3846V95.7314H30.2988V88.1384ZM17.5674 88.1384V83.5826H27.116V92.6942H17.5674V88.1384ZM39.8473 97.2501V95.7314H36.6645V89.657H39.8473V80.5453H43.0302V77.5081H36.6645V74.4709H23.9331V71.4337H27.116V68.3965H20.7503V74.4709H17.5674V71.4337H11.2017V68.3965H17.5674V62.322H14.3846V65.3592H11.2017V59.2848H17.5674V62.322H20.7503V65.3592H23.9331V62.322H27.116V65.3592H33.4816V62.322H30.2988V59.2848H20.7503V56.2476H30.2988V53.2103H20.7503V50.1731H17.5674V53.2103H11.2017V44.0987H14.3846V47.1359H33.4816V44.0987H30.2988V41.0615H23.9331V44.0987H20.7503V41.0615H14.3846V34.987H20.7503V41.0615H23.9331V38.0242H30.2988V34.987H33.4816V38.0242H30.2988V41.0615H33.4816V44.0987H36.6645V38.0242H39.8473V34.987H36.6645V25.8754H43.0302V28.9126H46.213V31.9498H43.0302V34.987H46.213V53.2103H39.8473V50.1731H36.6645V53.2103H33.4816V56.2476H30.2988V59.2848H33.4816V62.322H36.6645V65.3592H43.0302V62.322H39.8473V59.2848H36.6645V56.2476H43.0302V62.322H46.213V56.2476H49.3958V62.322H52.5787V53.2103H55.7615V50.1731H58.9444V53.2103H55.7615V56.2476H58.9444V59.2848H68.4929V56.2476H65.31V53.2103H62.1272V47.1359H58.9444V44.0987H62.1272V41.0615H65.31V38.0242H62.1272V34.987H58.9444V41.0615H55.7615V38.0242H52.5787V41.0615H49.3958V38.0242H52.5787V34.987H49.3958V25.8754H46.213V22.8381H49.3958V25.8754H52.5787V13.7265H55.7615V19.8009H62.1272V16.7637H58.9444V10.6892H65.31V13.7265H62.1272V16.7637H68.4929V13.7265H71.6757V10.6892H78.0414V19.8009H71.6757V16.7637H68.4929V22.8381H71.6757V31.9498H74.8586V28.9126H78.0414V44.0987H84.4071V41.0615H81.2243V34.987H87.5899V44.0987H93.9556V41.0615H90.7728V34.987H93.9556V41.0615H97.1385V38.0242H103.504V44.0987H100.321V41.0615H97.1385V44.0987H93.9556V53.2103H97.1385V56.2476H93.9556V59.2848H87.5899V62.322H84.4071V65.3592H78.0414V62.322H74.8586V59.2848H71.6757V65.3592H74.8586V68.3965H84.4071V71.4337H90.7728V68.3965H87.5899V65.3592H90.7728V62.322H93.9556V65.3592H97.1385V68.3965H100.321V62.322H97.1385V59.2848H103.504V68.3965H100.321V74.4709H103.504V80.5453H100.321V89.657H103.504V92.6942H93.9556V98.7687H84.4071V95.7314H90.7728V92.6942H84.4071V86.6198H81.2243V92.6942H78.0414V95.7314H81.2243V98.7687H74.8586V89.657H71.6757V95.7314H68.4929V92.6942H65.31V80.5453H68.4929V89.657H71.6757V80.5453H74.8586V74.4709H71.6757V71.4337H68.4929V68.3965H71.6757V65.3592H68.4929V62.322H65.31V74.4709H68.4929V77.5081H62.1272V83.5826H58.9444V89.657H62.1272V92.6942H58.9444V95.7314H65.31V98.7687H58.9444V95.7314H55.7615V92.6942H52.5787V98.7687H39.8473V97.2501ZM49.3958 92.6942V89.657H52.5787V80.5453H46.213V83.5826H49.3958V86.6198H43.0302V89.657H39.8473V92.6942H43.0302V95.7314H49.3958V92.6942ZM93.9556 89.657V86.6198H97.1385V80.5453H100.321V77.5081H97.1385V68.3965H93.9556V77.5081H97.1385V80.5453H93.9556V83.5826H90.7728V92.6942H93.9556V89.657ZM78.0414 88.1384V86.6198H74.8586V89.657H78.0414V88.1384ZM58.9444 82.0639V80.5453H55.7615V83.5826H58.9444V82.0639ZM87.5899 79.0267V74.4709H78.0414V83.5826H87.5899V79.0267ZM81.2243 79.0267V77.5081H84.4071V80.5453H81.2243V79.0267ZM55.7615 75.9895V74.4709H62.1272V71.4337H55.7615V68.3965H52.5787V71.4337H55.7615V74.4709H49.3958V71.4337H46.213V74.4709H43.0302V71.4337H39.8473V68.3965H36.6645V65.3592H33.4816V68.3965H30.2988V71.4337H33.4816V68.3965H36.6645V71.4337H39.8473V74.4709H43.0302V77.5081H55.7615V75.9895ZM46.213 66.8778V65.3592H43.0302V68.3965H46.213V66.8778ZM62.1272 65.3592V62.322H55.7615V65.3592H58.9444V68.3965H62.1272V65.3592ZM81.2243 60.8034V59.2848H78.0414V62.322H81.2243V60.8034ZM87.5899 57.7662V56.2476H90.7728V47.1359H87.5899V50.1731H84.4071V53.2103H81.2243V50.1731H74.8586V47.1359H71.6757V44.0987H74.8586V34.987H71.6757V31.9498H68.4929V28.9126H65.31V31.9498H62.1272V22.8381H65.31V25.8754H68.4929V22.8381H65.31V19.8009H62.1272V22.8381H58.9444V31.9498H62.1272V34.987H65.31V31.9498H68.4929V41.0615H65.31V44.0987H62.1272V47.1359H65.31V53.2103H68.4929V50.1731H74.8586V53.2103H78.0414V56.2476H84.4071V59.2848H87.5899V57.7662ZM84.4071 54.729V53.2103H87.5899V56.2476H84.4071V54.729ZM33.4816 51.6917V50.1731H36.6645V47.1359H33.4816V50.1731H30.2988V53.2103H33.4816V51.6917ZM43.0302 45.6173V44.0987H39.8473V47.1359H43.0302V45.6173ZM43.0302 30.4312V28.9126H39.8473V31.9498H43.0302V30.4312ZM55.7615 28.9126V25.8754H52.5787V31.9498H55.7615V28.9126ZM74.8586 15.2451V13.7265H71.6757V16.7637H74.8586V15.2451ZM100.321 97.2501V95.7314H103.504V98.7687H100.321V97.2501ZM100.321 53.2103V50.1731H97.1385V47.1359H100.321V50.1731H103.504V56.2476H100.321V53.2103ZM11.2017 21.3195V10.6892H33.4816V31.9498H11.2017V21.3195ZM30.2988 21.3195V13.7265H14.3846V28.9126H30.2988V21.3195ZM17.5674 21.3195V16.7637H27.116V25.8754H17.5674V21.3195ZM81.2243 21.3195V10.6892H103.504V31.9498H81.2243V21.3195ZM100.321 21.3195V13.7265H84.4071V28.9126H100.321V21.3195ZM87.5899 21.3195V16.7637H97.1385V25.8754H87.5899V21.3195ZM36.6645 21.3195V19.8009H39.8473V22.8381H36.6645V21.3195ZM43.0302 18.2823V16.7637H39.8473V10.6892H43.0302V13.7265H46.213V10.6892H49.3958V13.7265H46.213V19.8009H43.0302V18.2823Z" fill="var(--fill-0, black)"/>
</g>
</svg>
